<svg width="64" height="64" viewBox="0 0 64 64" fill="none" xmlns="http://www.w3.org/2000/svg">
<rect width="64" height="64" rx="32" fill="white"/>
<g clip-path="url(#clip0_46_553)">
<path d="M48.0015 42.2854L48.0015 21.7139C48.0015 20.4532 46.9765 19.4282 45.7157 19.4282L18.2872 19.4282C17.0264 19.4282 16.0014 20.4532 16.0014 21.7139L16.0014 42.2854C16.0014 43.5461 17.0264 44.5711 18.2872 44.5711L45.7157 44.5711C46.9765 44.5711 48.0015 43.5461 48.0015 42.2854ZM19.5729 41.9996C19.0206 41.9996 18.5729 41.5519 18.5729 40.9996L18.5729 22.9996C18.5729 22.4474 19.0206 21.9996 19.5729 21.9996L44.43 21.9997C44.9823 21.9997 45.43 22.4474 45.43 22.9997L45.43 40.9996C45.43 41.5519 44.9823 41.9996 44.43 41.9996L19.5729 41.9996Z" fill="#97A0AF"/>
<path d="M20.445 38.2219C20.445 37.731 20.843 37.333 21.3339 37.333L30.2228 37.333C30.7137 37.333 31.1117 37.731 31.1117 38.2219L31.1117 39.1108C31.1117 39.6017 30.7137 39.9997 30.2228 39.9997L21.3339 39.9997C20.843 39.9997 20.445 39.6017 20.445 39.1108L20.445 38.2219Z" fill="#97A0AF"/>
<path d="M32.8895 38.2219C32.8895 37.731 33.2874 37.333 33.7784 37.333L42.6673 37.333C43.1582 37.333 43.5561 37.731 43.5561 38.2219L43.5562 39.1108C43.5562 39.6017 43.1582 39.9997 42.6673 39.9997L33.7784 39.9997C33.2874 39.9997 32.8895 39.6017 32.8895 39.1108L32.8895 38.2219Z" fill="#97A0AF"/>
</g>
<defs>
<clipPath id="clip0_46_553">
<rect width="32" height="32" fill="white" transform="translate(16 16)"/>
</clipPath>
</defs>
</svg>
