<svg width="65" height="64" viewBox="0 0 65 64" fill="none" xmlns="http://www.w3.org/2000/svg">
<rect x="0.5" width="64" height="64" rx="32" fill="white"/>
<g clip-path="url(#clip0_46_572)">
<path d="M40.7849 15.9219H24.2134C22.9527 15.9219 21.9277 16.9469 21.9277 18.2076V45.6362C21.9277 46.8969 22.9527 47.9219 24.2134 47.9219H40.7849C42.0456 47.9219 43.0706 46.8969 43.0706 45.6362V18.2076C43.0706 16.9469 42.0456 15.9219 40.7849 15.9219ZM40.4992 45.3504H24.4992V18.4933H40.4992V45.3504ZM31.0706 41.7076C31.0706 42.0865 31.2211 42.4498 31.489 42.7177C31.7569 42.9857 32.1203 43.1362 32.4992 43.1362C32.878 43.1362 33.2414 42.9857 33.5093 42.7177C33.7772 42.4498 33.9277 42.0865 33.9277 41.7076C33.9277 41.3287 33.7772 40.9653 33.5093 40.6974C33.2414 40.4295 32.878 40.279 32.4992 40.279C32.1203 40.279 31.7569 40.4295 31.489 40.6974C31.2211 40.9653 31.0706 41.3287 31.0706 41.7076Z" fill="#97A0AF"/>
</g>
<defs>
<clipPath id="clip0_46_572">
<rect width="32" height="32" fill="white" transform="translate(16.5 16)"/>
</clipPath>
</defs>
</svg>
