<svg width="65" height="64" viewBox="0 0 65 64" fill="none" xmlns="http://www.w3.org/2000/svg">
<rect x="0.5" width="64" height="64" rx="32" fill="white"/>
<path d="M45.2148 19.433H41.9291V18.0045C41.9291 17.8473 41.8006 17.7188 41.6434 17.7188H23.3577C23.2006 17.7188 23.072 17.8473 23.072 18.0045V19.433H19.7863C19.3695 19.433 18.9698 19.5986 18.6751 19.8933C18.3804 20.188 18.2148 20.5877 18.2148 21.0045V26.2902C18.2148 29.208 20.3577 31.633 23.1506 32.0759C23.7041 36.2259 27.0363 39.4938 31.2148 39.9509V43.708H24.2148C23.5827 43.708 23.072 44.2188 23.072 44.8509V46.0045C23.072 46.1616 23.2006 46.2902 23.3577 46.2902H41.6434C41.8006 46.2902 41.9291 46.1616 41.9291 46.0045V44.8509C41.9291 44.2188 41.4184 43.708 40.7863 43.708H33.7863V39.9509C37.9648 39.4938 41.297 36.2259 41.8506 32.0759C44.6434 31.633 46.7863 29.208 46.7863 26.2902V21.0045C46.7863 20.5877 46.6207 20.188 46.326 19.8933C46.0313 19.5986 45.6316 19.433 45.2148 19.433ZM20.7863 26.2902V22.0045H23.072V29.4188C22.4086 29.2068 21.8297 28.7896 21.4188 28.2273C21.008 27.6649 20.7865 26.9866 20.7863 26.2902ZM39.3577 30.8616C39.3577 32.6152 38.6756 34.2687 37.4327 35.508C36.1898 36.7509 34.5398 37.433 32.7863 37.433H32.2148C30.4613 37.433 28.8077 36.7509 27.5684 35.508C26.3256 34.2652 25.6434 32.6152 25.6434 30.8616V20.2902H39.3577V30.8616ZM44.2148 26.2902C44.2148 27.7545 43.2541 28.9973 41.9291 29.4188V22.0045H44.2148V26.2902Z" fill="#97A0AF"/>
</svg>
